<svg version="1.1" id="Layer_1" xmlns="http://www.w3.org/2000/svg" xmlns:xlink="http://www.w3.org/1999/xlink" x="0px" y="0px"
	 width="100%" viewBox="0 0 416 147" enable-background="new 0 0 416 147" xml:space="preserve">
<path fill="#FEFEFE" opacity="1.000000" stroke="none" 
	d="
M390.000000,148.000000 
	C260.000031,148.000000 130.500076,148.000000 1.000087,148.000000 
	C1.000058,99.000053 1.000058,50.000107 1.000029,1.000120 
	C139.666580,1.000080 278.333160,1.000080 416.999817,1.000040 
	C416.999878,49.999893 416.999878,98.999786 416.999939,147.999847 
	C408.166656,148.000000 399.333344,148.000000 390.000000,148.000000 
M36.800976,71.827995 
	C44.479298,71.842171 52.157616,71.856346 60.789688,71.961731 
	C70.753441,71.961731 80.717186,71.961731 91.132515,71.961731 
	C90.478554,68.098236 89.997833,65.258202 89.437836,61.949810 
	C84.775368,61.949810 80.344505,61.949810 75.968712,61.165596 
	C73.296776,48.655640 66.046814,42.282024 55.176373,42.886536 
	C45.351891,43.432880 38.155060,51.030769 36.234402,62.047096 
	C31.938223,62.047096 27.642042,62.047096 23.151093,62.047096 
	C22.851994,65.430862 22.592783,68.363358 22.310352,71.558556 
	C26.993700,71.558556 31.439291,71.558556 36.800976,71.827995 
M50.684822,82.072868 
	C40.969246,82.072868 31.253668,82.072868 21.270639,82.072868 
	C20.245512,94.589012 19.245678,106.796349 18.483484,119.827988 
	C29.382883,119.827988 40.282284,119.827988 51.111984,119.827988 
	C51.111984,107.302544 51.111984,95.073830 50.684822,82.072868 
M61.151627,115.706253 
	C61.976013,117.137100 62.765915,119.788284 63.630047,119.812698 
	C73.862610,120.101852 84.106262,119.998795 94.514793,119.998795 
	C94.724411,118.679581 95.017891,117.878510 94.948318,117.110321 
	C94.160233,108.408325 93.378006,99.704803 92.451347,91.016937 
	C92.163406,88.317406 91.443542,85.663948 90.606506,82.168198 
	C81.087440,82.168198 71.568367,82.168198 61.498039,82.168198 
	C61.498039,93.259750 61.498039,104.150986 61.151627,115.706253 
M152.786240,82.554176 
	C152.786240,90.284355 152.786240,98.014526 152.786240,105.715393 
	C155.216003,105.715393 156.977295,105.715393 159.178375,105.715393 
	C159.178375,101.922127 159.178375,98.339470 159.178375,94.941971 
	C166.131073,92.450836 168.494736,97.857590 171.384369,101.513336 
	C174.479889,105.429558 177.755203,107.213829 182.815002,105.239487 
	C179.679138,101.561951 176.616379,97.970131 173.470810,94.281227 
	C174.171524,93.696968 174.490402,93.341515 174.883865,93.116478 
	C180.562958,89.868454 182.386963,86.252876 180.974594,79.941826 
	C179.821030,74.787285 176.173157,71.996490 171.034637,71.741310 
	C165.114304,71.447304 159.168167,71.673012 152.786255,71.673012 
	C152.786255,74.988213 152.786255,78.283592 152.786240,82.554176 
M231.650269,98.358559 
	C231.650269,100.799774 231.650269,103.240982 231.650269,105.759109 
	C234.005707,105.759109 235.784485,105.759109 238.117126,105.759109 
	C238.117126,98.412628 238.117126,91.215210 238.117126,82.808319 
	C243.987930,90.373352 248.952545,96.985260 254.198410,103.365944 
	C255.376877,104.799347 257.538269,105.424644 259.800812,106.745064 
	C259.800812,94.112579 259.800812,82.851639 259.800812,71.498962 
	C257.723999,71.498962 255.948944,71.498962 253.497772,71.498962 
	C253.497772,78.142006 253.497772,84.607101 253.497772,92.493980 
	C248.010910,85.585655 243.651382,79.756737 238.878830,74.288261 
	C237.384247,72.575729 234.777100,71.834175 231.650314,70.066490 
	C231.650314,80.438835 231.650314,88.917282 231.650269,98.358559 
M272.937012,105.746666 
	C277.927277,105.798820 282.929413,106.092606 287.905060,105.847763 
	C295.803925,105.459061 302.028473,99.483902 303.024872,91.778183 
	C304.168610,82.933540 300.405487,74.676872 292.916718,72.811340 
	C286.349396,71.175346 279.313446,71.420670 272.325623,70.821373 
	C272.325623,83.074829 272.325623,94.056541 272.937012,105.746666 
M123.575653,71.294159 
	C120.457436,71.294159 117.339226,71.294159 113.994980,71.294159 
	C113.994980,73.446533 113.994980,75.189133 113.994980,77.344963 
	C117.464401,77.344963 120.720589,77.344963 124.467506,77.344963 
	C124.467506,87.000366 124.467506,96.258957 124.467506,105.719322 
	C126.866440,105.719322 128.765793,105.719322 131.031647,105.719322 
	C131.031647,96.240494 131.031647,86.964188 131.031647,77.296326 
	C134.825867,77.296326 138.259521,77.296326 141.735214,77.296326 
	C141.735214,75.147118 141.735214,73.399811 141.735214,71.294167 
	C135.825638,71.294167 130.188828,71.294167 123.575653,71.294159 
M381.835938,90.150795 
	C382.369415,95.321175 382.902863,100.491547 383.442322,105.720200 
	C385.205994,105.720200 386.954315,105.720200 389.130615,105.720200 
	C389.130615,103.720032 389.330048,101.904381 389.094025,100.147217 
	C388.317413,94.365334 390.130829,89.599838 393.778595,85.088982 
	C397.157288,80.910835 399.894043,76.213593 402.951141,71.689171 
	C397.249542,70.146370 393.893646,72.023750 391.645020,76.779686 
	C390.272308,79.682976 388.164307,82.238617 386.058197,85.451286 
	C383.828369,81.864128 381.929199,78.824326 380.045471,75.775009 
	C376.834961,70.577972 376.652649,70.503654 369.898651,72.070053 
	C373.740326,77.965279 377.521027,83.766945 381.835938,90.150795 
M341.751831,93.192200 
	C347.036591,93.192200 352.321350,93.192200 357.659668,93.192200 
	C357.659668,90.855988 357.659668,89.000969 357.659668,87.335114 
	C349.582184,87.335114 341.852203,87.335114 334.206604,87.335114 
	C334.206604,93.631226 334.206604,99.575172 334.206604,105.721664 
	C336.337646,105.721664 338.254303,105.721664 340.971039,105.721664 
	C340.971039,101.638496 340.971039,97.694099 341.751831,93.192200 
M321.106171,98.426208 
	C321.106171,89.520592 321.106171,80.614975 321.106171,71.546310 
	C318.862152,71.546310 317.135468,71.546310 315.309998,71.546310 
	C315.309998,83.117363 315.309998,94.452499 315.309998,105.973923 
	C317.383606,105.873177 319.122711,105.788689 321.106171,105.692322 
	C321.106171,103.344604 321.106171,101.374611 321.106171,98.426208 
M194.101074,77.816902 
	C201.999512,77.816902 209.897934,77.816902 217.972641,77.816902 
	C217.972641,75.432091 217.972641,73.528084 217.972641,71.625641 
	C209.345444,71.625641 201.012283,71.625641 191.983414,71.625641 
	C192.474625,73.949821 192.864319,75.793694 194.101074,77.816902 
M345.516693,71.531792 
	C341.764404,71.531792 338.012115,71.531792 334.265076,71.531792 
	C334.265076,73.933304 334.265076,75.682213 334.265076,77.514786 
	C342.593445,77.514786 350.635529,77.514786 358.662018,77.514786 
	C358.662018,75.428734 358.662018,73.675209 358.662018,71.532127 
	C354.424408,71.532127 350.461853,71.532127 345.516693,71.531792 
M201.556824,92.053276 
	C206.973404,92.053276 212.389984,92.053276 217.895096,92.053276 
	C217.895096,89.740784 217.895096,88.002754 217.895096,86.017654 
	C209.432419,86.017654 201.229172,86.017654 192.783569,86.017654 
	C192.783569,88.080902 192.783569,89.943604 192.783569,92.053299 
	C195.623901,92.053299 198.101547,92.053299 201.556824,92.053276 
M216.084061,100.056076 
	C209.954224,100.038589 203.815292,100.218040 197.697708,99.935379 
	C193.520279,99.742363 191.979965,101.391563 192.497910,106.022316 
	C199.630844,106.022316 206.709137,106.068687 213.786438,106.005867 
	C218.432739,105.964630 218.837051,105.158730 216.084061,100.056076 
z"/>
<path fill="#FEE5BA" opacity="1.000000" stroke="none" 
	d="
M90.921417,82.989395 
	C91.443542,85.663948 92.163406,88.317406 92.451347,91.016937 
	C93.378006,99.704803 94.160233,108.408325 94.948318,117.110321 
	C95.017891,117.878510 94.724411,118.679581 94.514793,119.998795 
	C84.106262,119.998795 73.862610,120.101852 63.630047,119.812698 
	C62.765915,119.788284 61.976013,117.137100 61.684570,115.274086 
	C63.351681,113.662796 64.523254,112.517166 65.614082,111.299217 
	C74.058655,101.870483 82.487617,92.427780 90.921417,82.989395 
z"/>
<path fill="#F28D0F" opacity="1.000000" stroke="none" 
	d="
M51.111984,82.845116 
	C51.111984,95.073830 51.111984,107.302544 51.111984,119.827988 
	C40.282284,119.827988 29.382883,119.827988 18.619932,119.217339 
	C22.851248,114.032707 26.924021,109.438705 31.046009,104.889297 
	C37.717670,97.525833 44.421654,90.191658 51.111984,82.845116 
z"/>
<path fill="#0B0B0B" opacity="1.000000" stroke="none" 
	d="
M152.786255,82.066574 
	C152.786255,78.283592 152.786255,74.988213 152.786255,71.673012 
	C159.168167,71.673012 165.114304,71.447304 171.034637,71.741310 
	C176.173157,71.996490 179.821030,74.787285 180.974594,79.941826 
	C182.386963,86.252876 180.562958,89.868454 174.883865,93.116478 
	C174.490402,93.341515 174.171524,93.696968 173.470810,94.281227 
	C176.616379,97.970131 179.679138,101.561951 182.815002,105.239487 
	C177.755203,107.213829 174.479889,105.429558 171.384369,101.513336 
	C168.494736,97.857590 166.131073,92.450836 159.178375,94.941971 
	C159.178375,98.339470 159.178375,101.922127 159.178375,105.715393 
	C156.977295,105.715393 155.216003,105.715393 152.786240,105.715393 
	C152.786240,98.014526 152.786240,90.284355 152.786255,82.066574 
M159.134552,78.960136 
	C159.134552,82.030487 159.134552,85.100838 159.134552,88.292397 
	C163.251938,88.292397 166.837830,88.839233 170.121704,88.079895 
	C171.983765,87.649323 174.680679,85.015968 174.609848,83.485352 
	C174.517700,81.493683 172.326340,78.336479 170.547409,77.951859 
	C166.990112,77.182747 163.098846,77.958275 159.134552,78.960136 
z"/>
<path fill="#060606" opacity="1.000000" stroke="none" 
	d="
M231.650299,97.877136 
	C231.650314,88.917282 231.650314,80.438835 231.650314,70.066490 
	C234.777100,71.834175 237.384247,72.575729 238.878830,74.288261 
	C243.651382,79.756737 248.010910,85.585655 253.497772,92.493980 
	C253.497772,84.607101 253.497772,78.142006 253.497772,71.498962 
	C255.948944,71.498962 257.723999,71.498962 259.800812,71.498962 
	C259.800812,82.851639 259.800812,94.112579 259.800812,106.745064 
	C257.538269,105.424644 255.376877,104.799347 254.198410,103.365944 
	C248.952545,96.985260 243.987930,90.373352 238.117126,82.808319 
	C238.117126,91.215210 238.117126,98.412628 238.117126,105.759109 
	C235.784485,105.759109 234.005707,105.759109 231.650269,105.759109 
	C231.650269,103.240982 231.650269,100.799774 231.650299,97.877136 
z"/>
<path fill="#0E0E0E" opacity="1.000000" stroke="none" 
	d="
M272.631317,105.392456 
	C272.325623,94.056541 272.325623,83.074829 272.325623,70.821373 
	C279.313446,71.420670 286.349396,71.175346 292.916718,72.811340 
	C300.405487,74.676872 304.168610,82.933540 303.024872,91.778183 
	C302.028473,99.483902 295.803925,105.459061 287.905060,105.847763 
	C282.929413,106.092606 277.927277,105.798820 272.631317,105.392456 
M296.703186,88.518166 
	C295.120056,78.869774 291.246796,76.528946 279.347168,78.041115 
	C279.347168,85.245514 279.347168,92.445290 279.347168,99.617760 
	C291.986725,100.130516 294.961792,98.317390 296.703186,88.518166 
z"/>
<path fill="#E63305" opacity="1.000000" stroke="none" 
	d="
M50.898407,82.458992 
	C44.421654,90.191658 37.717670,97.525833 31.046009,104.889297 
	C26.924021,109.438705 22.851248,114.032707 18.501112,118.805183 
	C19.245678,106.796349 20.245512,94.589012 21.270639,82.072868 
	C31.253668,82.072868 40.969246,82.072868 50.898407,82.458992 
z"/>
<path fill="#F28C09" opacity="1.000000" stroke="none" 
	d="
M90.763962,82.578796 
	C82.487617,92.427780 74.058655,101.870483 65.614082,111.299217 
	C64.523254,112.517166 63.351681,113.662796 61.857773,114.942062 
	C61.498039,104.150986 61.498039,93.259750 61.498039,82.168198 
	C71.568367,82.168198 81.087440,82.168198 90.763962,82.578796 
z"/>
<path fill="#090909" opacity="1.000000" stroke="none" 
	d="
M124.063835,71.294159 
	C130.188828,71.294167 135.825638,71.294167 141.735214,71.294167 
	C141.735214,73.399811 141.735214,75.147118 141.735214,77.296326 
	C138.259521,77.296326 134.825867,77.296326 131.031647,77.296326 
	C131.031647,86.964188 131.031647,96.240494 131.031647,105.719322 
	C128.765793,105.719322 126.866440,105.719322 124.467506,105.719322 
	C124.467506,96.258957 124.467506,87.000366 124.467506,77.344963 
	C120.720589,77.344963 117.464401,77.344963 113.994980,77.344963 
	C113.994980,75.189133 113.994980,73.446533 113.994980,71.294159 
	C117.339226,71.294159 120.457436,71.294159 124.063835,71.294159 
z"/>
<path fill="#0C0C0C" opacity="1.000000" stroke="none" 
	d="
M381.568848,89.859695 
	C377.521027,83.766945 373.740326,77.965279 369.898651,72.070053 
	C376.652649,70.503654 376.834961,70.577972 380.045471,75.775009 
	C381.929199,78.824326 383.828369,81.864128 386.058197,85.451286 
	C388.164307,82.238617 390.272308,79.682976 391.645020,76.779686 
	C393.893646,72.023750 397.249542,70.146370 402.951141,71.689171 
	C399.894043,76.213593 397.157288,80.910835 393.778595,85.088982 
	C390.130829,89.599838 388.317413,94.365334 389.094025,100.147217 
	C389.330048,101.904381 389.130615,103.720032 389.130615,105.720200 
	C386.954315,105.720200 385.205994,105.720200 383.442322,105.720200 
	C382.902863,100.491547 382.369415,95.321175 381.568848,89.859695 
z"/>
<path fill="#0B0A39" opacity="1.000000" stroke="none" 
	d="
M37.179707,61.886093 
	C38.155060,51.030769 45.351891,43.432880 55.176373,42.886536 
	C66.046814,42.282024 73.296776,48.655640 75.528160,61.586510 
	C73.168121,61.964531 71.248642,61.921638 69.288742,61.494110 
	C67.809166,53.604733 62.355686,48.746311 55.875431,49.195778 
	C49.182484,49.659992 44.483807,54.643448 43.625313,61.958496 
	C43.191563,62.073387 43.023018,62.136841 42.457970,62.129395 
	C40.434208,62.001026 38.806957,61.943558 37.179707,61.886093 
z"/>
<path fill="#FFE8C0" opacity="1.000000" stroke="none" 
	d="
M69.329155,61.878746 
	C71.248642,61.921638 73.168121,61.964531 75.500626,61.978615 
	C80.344505,61.949810 84.775368,61.949810 89.437836,61.949810 
	C89.997833,65.258202 90.478554,68.098236 91.132515,71.961731 
	C80.717186,71.961731 70.753441,71.961731 60.502995,71.642952 
	C62.752064,68.257530 65.287827,65.190887 68.198837,62.055882 
	C68.825775,61.951260 69.077469,61.915005 69.329155,61.878746 
z"/>
<path fill="#F28D15" opacity="1.000000" stroke="none" 
	d="
M67.823593,62.124245 
	C65.287827,65.190887 62.752064,68.257530 60.026119,71.597351 
	C52.157616,71.856346 44.479298,71.842171 36.412048,71.377686 
	C38.300240,68.018349 40.577358,65.109322 42.854477,62.200298 
	C43.023018,62.136841 43.191563,62.073387 44.097137,62.023918 
	C52.497303,62.066681 60.160450,62.095463 67.823593,62.124245 
z"/>
<path fill="#090909" opacity="1.000000" stroke="none" 
	d="
M341.361450,93.470955 
	C340.971039,97.694099 340.971039,101.638496 340.971039,105.721664 
	C338.254303,105.721664 336.337646,105.721664 334.206604,105.721664 
	C334.206604,99.575172 334.206604,93.631226 334.206604,87.335114 
	C341.852203,87.335114 349.582184,87.335114 357.659668,87.335114 
	C357.659668,89.000969 357.659668,90.855988 357.659668,93.192200 
	C352.321350,93.192200 347.036591,93.192200 341.361450,93.470955 
z"/>
<path fill="#040404" opacity="1.000000" stroke="none" 
	d="
M321.106171,98.915413 
	C321.106171,101.374611 321.106171,103.344604 321.106171,105.692322 
	C319.122711,105.788689 317.383606,105.873177 315.309998,105.973923 
	C315.309998,94.452499 315.309998,83.117363 315.309998,71.546310 
	C317.135468,71.546310 318.862152,71.546310 321.106171,71.546310 
	C321.106171,80.614975 321.106171,89.520592 321.106171,98.915413 
z"/>
<path fill="#E94920" opacity="1.000000" stroke="none" 
	d="
M193.677551,77.727234 
	C192.864319,75.793694 192.474625,73.949821 191.983414,71.625641 
	C201.012283,71.625641 209.345444,71.625641 217.972641,71.625641 
	C217.972641,73.528084 217.972641,75.432091 217.972641,77.816902 
	C209.897934,77.816902 201.999512,77.816902 193.677551,77.727234 
z"/>
<path fill="#E73C11" opacity="1.000000" stroke="none" 
	d="
M346.007996,71.531960 
	C350.461853,71.532127 354.424408,71.532127 358.662018,71.532127 
	C358.662018,73.675209 358.662018,75.428734 358.662018,77.514786 
	C350.635529,77.514786 342.593445,77.514786 334.265076,77.514786 
	C334.265076,75.682213 334.265076,73.933304 334.265076,71.531792 
	C338.012115,71.531792 341.764404,71.531792 346.007996,71.531960 
z"/>
<path fill="#E63508" opacity="1.000000" stroke="none" 
	d="
M42.457970,62.129395 
	C40.577358,65.109322 38.300240,68.018349 35.954002,71.242966 
	C31.439291,71.558556 26.993700,71.558556 22.310352,71.558556 
	C22.592783,68.363358 22.851994,65.430862 23.151093,62.047096 
	C27.642042,62.047096 31.938223,62.047096 36.707054,61.966591 
	C38.806957,61.943558 40.434208,62.001026 42.457970,62.129395 
z"/>
<path fill="#F28D0C" opacity="1.000000" stroke="none" 
	d="
M201.068008,92.053284 
	C198.101547,92.053299 195.623901,92.053299 192.783569,92.053299 
	C192.783569,89.943604 192.783569,88.080902 192.783569,86.017654 
	C201.229172,86.017654 209.432419,86.017654 217.895096,86.017654 
	C217.895096,88.002754 217.895096,89.740784 217.895096,92.053276 
	C212.389984,92.053276 206.973404,92.053276 201.068008,92.053284 
z"/>
<path fill="#FFE9C0" opacity="1.000000" stroke="none" 
	d="
M216.524277,100.153999 
	C218.837051,105.158730 218.432739,105.964630 213.786438,106.005867 
	C206.709137,106.068687 199.630844,106.022316 192.497910,106.022316 
	C191.979965,101.391563 193.520279,99.742363 197.697708,99.935379 
	C203.815292,100.218040 209.954224,100.038589 216.524277,100.153999 
z"/>
<path fill="#F2F2F2" opacity="1.000000" stroke="none" 
	d="
M159.240021,78.528069 
	C163.098846,77.958275 166.990112,77.182747 170.547409,77.951859 
	C172.326340,78.336479 174.517700,81.493683 174.609848,83.485352 
	C174.680679,85.015968 171.983765,87.649323 170.121704,88.079895 
	C166.837830,88.839233 163.251938,88.292397 159.134552,88.292397 
	C159.134552,85.100838 159.134552,82.030487 159.240021,78.528069 
z"/>
<path fill="#F9F9F9" opacity="1.000000" stroke="none" 
	d="
M296.693939,88.910408 
	C294.961792,98.317390 291.986725,100.130516 279.347168,99.617760 
	C279.347168,92.445290 279.347168,85.245514 279.347168,78.041115 
	C291.246796,76.528946 295.120056,78.869774 296.693939,88.910408 
z"/>
<path fill="#FAFAFB" opacity="1.000000" stroke="none" 
	d="
M68.198837,62.055878 
	C60.160450,62.095463 52.497303,62.066681 44.362335,61.972485 
	C44.483807,54.643448 49.182484,49.659992 55.875431,49.195778 
	C62.355686,48.746311 67.809166,53.604733 69.288742,61.494110 
	C69.077469,61.915005 68.825775,61.951260 68.198837,62.055878 
z"/>
</svg>